<svg width="140" height="125" viewBox="0 0 140 125" fill="none" xmlns="http://www.w3.org/2000/svg">
<path d="M131.933 103.484L104.759 12.9219C103.329 8.30078 98.665 4.96484 93.1263 4.96484C92.0238 4.96484 90.9606 5.09766 89.9456 5.34375L90.0288 5.32812L77.3544 8.35938C75.9325 8.72656 74.69 9.28125 73.5919 10L73.6269 9.98047C71.4831 6.90625 67.725 4.89062 63.4331 4.87891H50.3169C46.865 4.88281 43.7544 6.19531 41.5756 8.28906L41.5669 8.29688C39.3794 6.19922 36.2688 4.88672 32.8169 4.88281H19.6919C13.0506 4.89063 7.66938 9.69531 7.66063 15.625V109.375C7.66938 115.305 13.0506 120.109 19.6919 120.117H32.8169C36.2688 120.109 39.3794 118.801 41.5581 116.707L41.5669 116.699C43.7544 118.801 46.865 120.109 50.3169 120.117H63.4331C70.0744 120.109 75.4556 115.305 75.4644 109.375V43.5625L96.0225 112.078C97.4531 116.695 102.113 120.027 107.643 120.035C107.647 120.035 107.656 120.035 107.664 120.035C108.762 120.035 109.826 119.902 110.836 119.652L110.753 119.672L123.432 116.645C128.603 115.371 132.339 111.207 132.339 106.266C132.339 105.281 132.191 104.324 131.911 103.418L131.933 103.492V103.484ZM80.5656 37.9219L103.797 32.3633L120.216 87.0781L96.9806 92.6328L80.5656 37.9219ZM79.0475 14.0234L91.7175 10.9922C92.1419 10.8867 92.6319 10.8242 93.1394 10.8242C95.655 10.8242 97.7725 12.3438 98.4069 14.4102L98.4156 14.4453L102.095 26.707L78.8594 32.2656L75.4556 20.918V16.7969C76.125 15.4414 77.42 14.4258 79.0081 14.0312L79.0475 14.0234ZM50.3125 10.7422H63.4288C66.4475 10.7461 68.8931 12.9297 68.8975 15.625V28.3164L44.8438 28.3203V15.625C44.8481 12.9297 47.2938 10.7461 50.3125 10.7422ZM38.2813 90.8203H14.2188V34.1797L38.2813 34.1758V90.8203ZM44.8438 34.1797L68.8975 34.1758V90.8203H44.8438V34.1797ZM19.6875 10.7422H32.8125C35.8313 10.7461 38.2769 12.9297 38.2813 15.625V28.3164L14.2188 28.3203V15.625C14.2231 12.9297 16.6688 10.7461 19.6875 10.7422ZM32.8125 114.258H19.6875C16.6688 114.254 14.2231 112.07 14.2188 109.375V96.6797H38.2813V109.375C38.2769 112.07 35.8313 114.254 32.8125 114.258ZM63.4288 114.258H50.3125C47.2938 114.254 44.8481 112.07 44.8438 109.375V96.6797H68.8975V109.375C68.8931 112.07 66.4475 114.254 63.4288 114.258ZM125.038 108.695C124.32 109.809 123.156 110.629 121.769 110.969L121.73 110.977L109.051 114.004C108.631 114.105 108.15 114.164 107.656 114.164C105.14 114.164 103.018 112.652 102.371 110.59L102.362 110.555L98.6825 98.2891L121.918 92.7344L125.598 105C125.716 105.375 125.781 105.809 125.781 106.254C125.781 107.152 125.506 107.996 125.024 108.715L125.038 108.695Z" fill="url(#paint0_linear_8_107)"/>
<defs>
<linearGradient id="paint0_linear_8_107" x1="-19.5" y1="62" x2="155.5" y2="102" gradientUnits="userSpaceOnUse">
<stop offset="0.0566336" stop-color="#FDCB00"/>
<stop offset="1" stop-color="#FC3D58"/>
</linearGradient>
</defs>
</svg>
