<svg width="1406" height="915" viewBox="0 0 1406 915" fill="none" xmlns="http://www.w3.org/2000/svg">
<g clip-path="url(#clip0_4_46)">
<mask id="mask0_4_46" style="mask-type:luminance" maskUnits="userSpaceOnUse" x="0" y="0" width="1417" height="915">
<path d="M1417 0H0V915H1417V0Z" fill="white"/>
</mask>
<g mask="url(#mask0_4_46)">
<path d="M1417 0H0V915H1417V0Z" fill="#F7B500"/>
<path d="M1498.92 558.055C1498.92 787.661 1229.71 766.649 1109.61 964.562C948.224 1230.55 978.224 1545.02 733.593 1545.02C310.914 1545.02 -31.7349 1103.14 -31.7349 558.055C-31.7349 12.9711 310.914 -428.906 733.593 -428.906C1156.27 -428.906 1498.92 12.9711 1498.92 558.055Z" fill="#1681F5"/>
<path d="M1530.66 156.789C1530.66 386.396 1261.44 365.383 1141.35 563.297C979.959 829.282 1009.96 1143.75 765.328 1143.75C342.649 1143.75 0 701.873 0 156.789C0 -388.295 342.649 -830.172 765.328 -830.172C1188.01 -830.172 1530.66 -388.295 1530.66 156.789Z" fill="#FC3D58"/>
<path d="M1131.39 78.6328C1131.39 323.328 829.535 370.766 731.379 710.078C659.34 959.11 478.96 1016.03 260.521 1016.03C-147.484 1016.03 -346.132 605.292 -346.132 78.6328C-346.132 -448.027 -15.3781 -874.969 392.627 -874.969C800.635 -874.969 1131.39 -448.027 1131.39 78.6328Z" fill="#0E3C6E"/>
<path d="M340.367 -294.847C377.443 -116.15 164.136 -5.20581 143.847 267.401C128.956 467.473 5.81927 554.641 -153.745 609.857C-451.783 712.992 -659.125 463.249 -738.921 78.6364C-818.723 -305.976 -641.804 -701.373 -343.766 -804.508C-45.728 -907.643 260.568 -679.46 340.367 -294.847Z" fill="#15375C"/>
</g>
</g>
<defs>
<clipPath id="clip0_4_46">
<rect width="1417" height="915" fill="white"/>
</clipPath>
</defs>
</svg>
