<svg width="1406" height="237" viewBox="0 0 1406 237" fill="none" xmlns="http://www.w3.org/2000/svg">
<mask id="mask0_15_84" style="mask-type:luminance" maskUnits="userSpaceOnUse" x="0" y="0" width="1442" height="237">
<path d="M1442 0H0V237H1442V0Z" fill="white"/>
</mask>
<g mask="url(#mask0_15_84)">
<path d="M1442 0H0V237H1442V0Z" fill="#F7B500"/>
<path d="M1402 63.0319C1402 103.504 1149.78 99.8001 1037.28 134.686C886.078 181.57 914.184 237 685 237C289.012 237 -32 159.112 -32 63.0319C-32 -33.048 289.012 -110.936 685 -110.936C1080.99 -110.936 1402 -33.048 1402 63.0319Z" fill="#1681F5"/>
<path d="M1151.35 20.3672C1151.35 83.7472 844.171 96.0344 744.282 183.922C670.972 248.425 487.41 263.169 265.118 263.169C-150.086 263.169 -352.239 156.781 -352.239 20.3672C-352.239 -116.046 -15.6494 -226.631 399.554 -226.631C814.76 -226.631 1151.35 -116.046 1151.35 20.3672Z" fill="#0E3C6E"/>
<path d="M346.372 -76.3703C384.102 -30.0847 167.032 -1.34837 146.385 69.2613C131.232 121.083 5.922 143.661 -156.458 157.963C-459.754 184.677 -670.754 119.989 -751.958 20.3681C-833.168 -79.2528 -653.127 -181.667 -349.831 -208.381C-46.5347 -235.094 265.166 -175.991 346.372 -76.3703Z" fill="#FC3D58"/>
</g>
</svg>
