<svg width="1440" height="94" viewBox="0 0 1440 94" fill="none" xmlns="http://www.w3.org/2000/svg">
<mask id="mask0_12_34" style="mask-type:luminance" maskUnits="userSpaceOnUse" x="0" y="0" width="1442" height="94">
<path d="M1442 0H0V94H1442V0Z" fill="white"/>
</mask>
<g mask="url(#mask0_12_34)">
<path d="M1442 0H0V94H1442V0Z" fill="#F7B500"/>
<path d="M1402 25C1402 41.0522 1149.78 39.5832 1037.28 53.4196C886.078 72.0153 914.184 94 685 94C289.012 94 -32 63.1076 -32 25C-32 -13.1077 289.012 -44 685 -44C1080.99 -44 1402 -13.1077 1402 25Z" fill="#1681F5"/>
<path d="M1151.35 8.07812C1151.35 33.2162 844.171 38.0896 744.282 72.9479C670.972 98.5316 487.41 104.379 265.118 104.379C-150.086 104.379 -352.239 62.183 -352.239 8.07812C-352.239 -46.0268 -15.6494 -89.8875 399.554 -89.8875C814.76 -89.8875 1151.35 -46.0268 1151.35 8.07812Z" fill="#0E3C6E"/>
<path d="M346.372 -30.2903C384.102 -11.9323 167.032 -0.534798 146.385 27.4707C131.232 48.0246 5.92196 56.9795 -156.458 62.652C-459.754 73.2472 -670.754 47.5906 -751.958 8.0785C-833.168 -31.4336 -653.127 -72.0536 -349.831 -82.6489C-46.5348 -93.2442 265.166 -69.8024 346.372 -30.2903Z" fill="#FC3D58"/>
</g>
</svg>
