<svg width="34" height="33" viewBox="0 0 34 33" fill="none" xmlns="http://www.w3.org/2000/svg">
<path fill-rule="evenodd" clip-rule="evenodd" d="M9.97842 0.202502C7.21101 0.323695 4.81238 0.980387 2.87554 2.85232C0.931931 4.73409 0.26374 7.07139 0.138564 9.72945C0.0607519 11.3885 -0.394254 23.9221 0.925167 27.2091C1.81493 29.4266 3.56735 31.1316 5.87295 31.9979C6.94879 32.4041 8.1769 32.679 9.97842 32.7593C25.0418 33.4209 30.6256 33.0607 32.9803 27.2091C33.3981 26.1675 33.6857 24.9765 33.7652 23.2323C34.4537 8.57454 33.6536 5.39737 31.0283 2.85232C28.9459 0.83626 26.4965 -0.536117 9.97842 0.202502ZM10.1171 29.8114C8.46781 29.7393 7.57299 29.4726 6.97587 29.2482C5.47376 28.6815 4.34549 27.591 3.76528 26.1416C2.76049 23.644 3.09374 11.7818 3.1834 9.86238C3.27136 7.98224 3.66379 6.26394 5.03058 4.93737C6.72214 3.29962 8.90762 2.49698 23.7883 3.14881C25.7302 3.23396 27.5047 3.61408 28.8749 4.93737C30.5665 6.57511 31.4055 8.71263 30.7221 23.1002C30.6476 24.697 30.3719 25.5634 30.1402 26.1416C28.6093 29.9493 25.0874 30.4779 10.1171 29.8114ZM23.9524 7.73785C23.9524 8.82205 24.8608 9.70366 25.9823 9.70366C27.1038 9.70366 28.0139 8.82205 28.0139 7.73785C28.0139 6.65367 27.1038 5.77284 25.9823 5.77284C24.8608 5.77284 23.9524 6.65367 23.9524 7.73785ZM8.26653 16.4801C8.26653 21.1247 12.1555 24.8904 16.9527 24.8904C21.75 24.8904 25.6389 21.1247 25.6389 16.4801C25.6389 11.8354 21.75 8.0722 16.9527 8.0722C12.1555 8.0722 8.26653 11.8354 8.26653 16.4801ZM11.3147 16.4801C11.3147 13.4666 13.8386 11.0217 16.9527 11.0217C20.0669 11.0217 22.5907 13.4666 22.5907 16.4801C22.5907 19.4952 20.0669 21.9409 16.9527 21.9409C13.8386 21.9409 11.3147 19.4952 11.3147 16.4801Z" fill="white"/>
</svg>
