<svg width="33" height="33" viewBox="0 0 33 33" fill="none" xmlns="http://www.w3.org/2000/svg">
<path d="M23.7188 0H9.28125C4.125 0 0 4.125 0 9.28125V23.7188C0 28.875 4.125 33 9.28125 33H23.7188C28.875 33 33 28.875 33 23.7188V9.28125C33 4.125 28.875 0 23.7188 0ZM12.375 25.7813C12.375 26.4 11.9625 26.8125 11.3438 26.8125H7.21875C6.6 26.8125 6.1875 26.4 6.1875 25.7813V13.4063C6.1875 12.7875 6.6 12.375 7.21875 12.375H11.3438C11.9625 12.375 12.375 12.7875 12.375 13.4063V25.7813ZM9.28125 11.3438C7.52813 11.3438 6.1875 10.0031 6.1875 8.25C6.1875 6.49688 7.52813 5.15625 9.28125 5.15625C11.0344 5.15625 12.375 6.49688 12.375 8.25C12.375 10.0031 11.0344 11.3438 9.28125 11.3438ZM26.8125 25.7813C26.8125 26.4 26.4 26.8125 25.7813 26.8125H22.6875C22.0688 26.8125 21.6562 26.4 21.6562 25.7813V22.1719V21.1406V19.0781C21.6562 18.2531 20.9344 17.5312 20.1094 17.5312C19.2844 17.5312 18.5625 18.2531 18.5625 19.0781V21.1406V22.1719V25.7813C18.5625 26.4 18.15 26.8125 17.5312 26.8125H14.4375C13.8188 26.8125 13.4063 26.4 13.4063 25.7813V13.4063C13.4063 12.7875 13.8188 12.375 14.4375 12.375H18.5625C18.8719 12.375 19.0781 12.4781 19.2844 12.6844C19.9031 12.4781 20.5219 12.375 21.1406 12.375C24.2344 12.375 26.8125 14.9531 26.8125 18.0469V25.7813Z" fill="white"/>
</svg>
