<svg width="136" height="103" viewBox="0 0 136 103" fill="none" xmlns="http://www.w3.org/2000/svg">
<g clip-path="url(#clip0_10_121)">
<path d="M128.265 82.3356C130.263 81.1447 131.538 79.3165 131.538 77.2565C131.538 74.9518 129.939 72.9305 127.534 71.791L127.5 34.3119L119 38.625V71.7781C116.595 72.9369 115.022 74.9454 115.022 77.2307C115.022 79.265 116.272 81.0803 118.218 82.2648L115.005 85.4965C112.259 88.1358 110.577 91.4898 110.5 95.1398V103.006H117.385C117.402 103.006 117.427 103.006 117.427 103.006C120.921 103.006 123.862 101.191 124.678 98.732L127.491 90.1315V103.006H135.991V95.2171C135.915 91.5541 134.232 88.2002 131.453 85.5286L128.265 82.3356Z" fill="#FDCB00"/>
<path d="M68 0L0 25.75L68 57.9375L136 25.75L68 0Z" fill="#FDCB00"/>
<path d="M68 64.375L25.5 42.9381V53.9462C25.5 59.8044 50.49 77.25 68 77.25C85.51 77.25 110.5 59.8044 110.5 53.9462V42.9381L68 64.375Z" fill="#FDCB00"/>
</g>
<defs>
<clipPath id="clip0_10_121">
<rect width="136" height="103" fill="white"/>
</clipPath>
</defs>
</svg>
