<svg width="152" height="140" viewBox="0 0 152 140" fill="none" xmlns="http://www.w3.org/2000/svg">
<path fill-rule="evenodd" clip-rule="evenodd" d="M125.4 59.3834C123.437 40.8334 111.53 11.6667 74.7336 11.6667C37.937 11.6667 26.0303 40.8334 24.067 59.3834C17.1795 61.7909 12.6365 67.8815 12.6668 74.6667V82.8333C12.6668 91.854 20.6064 99.1667 30.4003 99.1667C40.1941 99.1667 48.1336 91.854 48.1336 82.8333V74.6667C48.1018 68.028 43.7256 62.0626 37.0503 59.5583C38.317 48.825 44.5236 23.3334 74.7336 23.3334C104.944 23.3334 111.087 48.825 112.354 59.5583C105.692 62.068 101.338 68.0374 101.334 74.6667V82.8333C101.361 89.1041 105.27 94.8108 111.404 97.5333C108.744 102.142 101.967 108.383 85.3103 110.25C81.9807 105.593 75.5389 103.757 69.9358 105.869C64.3326 107.98 61.1346 113.447 62.3031 118.918C63.4715 124.39 68.6798 128.333 74.7336 128.333C79.5174 128.309 83.8782 125.804 86.007 121.858C113.177 119 121.854 106.108 124.577 98.525C131.945 96.3268 136.9 89.9659 136.8 82.8333V74.6667C136.831 67.8815 132.288 61.7909 125.4 59.3834ZM35.467 82.8333C35.467 85.4107 33.1985 87.5 30.4003 87.5C27.6021 87.5 25.3336 85.4107 25.3336 82.8333V74.6667C25.3336 72.9994 26.2993 71.4588 27.867 70.6252C29.4346 69.7916 31.366 69.7916 32.9336 70.6252C34.5013 71.4588 35.467 72.9994 35.467 74.6667V82.8333ZM114 74.6667C114 72.0894 116.269 70 119.067 70C121.865 70 124.134 72.0894 124.134 74.6667V82.8333C124.134 85.4107 121.865 87.5 119.067 87.5C116.269 87.5 114 85.4107 114 82.8333V74.6667Z" fill="#FC3D58"/>
</svg>
