<svg width="100" height="100" viewBox="0 0 100 100" fill="none" xmlns="http://www.w3.org/2000/svg">
<circle cx="50" cy="50" r="50" fill="#FC3D58"/>
<path d="M50.1577 68.4972C47.7192 68.4972 45.5412 68.0769 43.6236 67.2365C41.7178 66.3961 40.2086 65.2301 39.0959 63.7386C37.995 62.2353 37.4032 60.4953 37.3203 58.5185H42.8956C42.9666 59.5956 43.3277 60.5308 43.9787 61.3239C44.6416 62.1051 45.5057 62.7088 46.571 63.1349C47.6364 63.5611 48.8201 63.7741 50.1222 63.7741C51.5545 63.7741 52.821 63.5256 53.9219 63.0284C55.0346 62.5312 55.9046 61.8388 56.532 60.951C57.1593 60.0514 57.473 59.0156 57.473 57.8438C57.473 56.6245 57.1593 55.5533 56.532 54.63C55.9164 53.6948 55.0109 52.9609 53.8153 52.4283C52.6316 51.8956 51.1993 51.6293 49.5185 51.6293H46.4467V47.1548H49.5185C50.8679 47.1548 52.0516 46.9122 53.0696 46.4268C54.0994 45.9415 54.9044 45.2668 55.4844 44.4027C56.0644 43.5268 56.3544 42.5028 56.3544 41.331C56.3544 40.2064 56.0999 39.2299 55.5909 38.4013C55.0938 37.5608 54.3835 36.9039 53.4602 36.4304C52.5488 35.9569 51.4716 35.7202 50.2287 35.7202C49.045 35.7202 47.9382 35.9392 46.9084 36.3771C45.8904 36.8033 45.0618 37.4188 44.4226 38.2237C43.7834 39.0168 43.4401 39.9697 43.3928 41.0824H38.0838C38.143 39.1174 38.723 37.3892 39.8239 35.8977C40.9366 34.4062 42.4044 33.2403 44.2273 32.3999C46.0502 31.5594 48.0743 31.1392 50.2997 31.1392C52.6316 31.1392 54.6439 31.5949 56.3366 32.5064C58.0412 33.406 59.3551 34.6075 60.2784 36.1108C61.2135 37.6141 61.6752 39.2595 61.6634 41.0469C61.6752 43.0829 61.107 44.8111 59.9588 46.2315C58.8224 47.652 57.3073 48.6049 55.4134 49.0902V49.3743C57.8281 49.7412 59.6984 50.7 61.0241 52.2507C62.3617 53.8014 63.0246 55.7249 63.0128 58.0213C63.0246 60.0218 62.4683 61.8151 61.3438 63.4013C60.2311 64.9875 58.71 66.2363 56.7805 67.1477C54.8511 68.0473 52.6435 68.4972 50.1577 68.4972Z" fill="white"/>
</svg>
