<svg width="100" height="100" viewBox="0 0 100 100" fill="none" xmlns="http://www.w3.org/2000/svg">
<circle cx="50" cy="50" r="50" fill="#FDCB00"/>
<path d="M37.4979 68V64.0227L49.8026 51.2741C51.1165 49.8892 52.1996 48.6759 53.0518 47.6342C53.916 46.5807 54.5611 45.5805 54.9872 44.6335C55.4134 43.6866 55.6264 42.6804 55.6264 41.6151C55.6264 40.4077 55.3423 39.366 54.7741 38.4901C54.206 37.6023 53.4306 36.9216 52.4482 36.4482C51.4657 35.9628 50.3589 35.7202 49.1278 35.7202C47.8258 35.7202 46.6894 35.9865 45.7188 36.5192C44.7481 37.0518 44.0024 37.8035 43.4815 38.7741C42.9607 39.7448 42.7003 40.8812 42.7003 42.1832H37.4624C37.4624 39.9697 37.9714 38.0343 38.9893 36.3771C40.0073 34.7199 41.4041 33.4356 43.1797 32.5241C44.9553 31.6009 46.9735 31.1392 49.2344 31.1392C51.5189 31.1392 53.5313 31.5949 55.2713 32.5064C57.0232 33.406 58.3904 34.6371 59.3729 36.1996C60.3554 37.7502 60.8466 39.5021 60.8466 41.4553C60.8466 42.8047 60.5921 44.1245 60.0831 45.4148C59.5859 46.705 58.7159 48.1432 57.473 49.7294C56.2301 51.3037 54.5019 53.2154 52.2884 55.4645L45.0618 63.0284V63.2947H61.4325V68H37.4979Z" fill="#FC3D58"/>
</svg>
